<?xml version="1.0" encoding="utf-8"?>
<!-- Generator: Adobe Illustrator 23.0.3, SVG Export Plug-In . SVG Version: 6.00 Build 0)  -->
<svg version="1.1" id="Layer_1" xmlns="http://www.w3.org/2000/svg" xmlns:xlink="http://www.w3.org/1999/xlink" x="0px" y="0px"
	 viewBox="0 0 512 512" style="enable-background:new 0 0 512 512;" xml:space="preserve">
<g>
	<path d="M139,104c-11.1,37.4-22.7,91.7-22,157.6c0.7,60.2,11.4,110.2,22,145.8c-0.1,3,1.4,5.7,3.9,7.2c2.3,1.4,5.2,1.6,7.8,0
		c31.8-7.8,74.6-21.9,120.5-48.9c57.9-34,96.7-74.4,120-102.8c0.3-0.2,3.8-2.6,3.8-7.2c0-2.8-1.3-5.5-3.8-7.1
		c-22.1-25.8-55.1-58.9-101.1-89.2c-53.4-35.1-103.8-53-139.4-62.5C148.3,95.5,145.3,95.4,139,104z"/>
</g>
</svg>
